<?xml version="1.0" encoding="UTF-8"?>
<svg id="Layer_2" data-name="Layer 2" xmlns="http://www.w3.org/2000/svg" viewBox="0 0 1499.84 205.4">
  <defs>
    <style>
      .cls-1 {
        fill: #f9cf1d;
      }
    </style>
  </defs>
  <g id="Layer_1-2" data-name="Layer 1">
    <g>
      <path class="cls-1" d="M185.34,116.88c6.5-6.5,11.7-14.3,15.17-22.98,3.15-7.86,4.88-16.45,4.88-25.43,0-11.12-2.65-21.61-7.35-30.89-3.28-6.48-7.56-12.37-12.64-17.46C173.01,7.69,155.87,0,136.93,0H0l68.47,68.47c-18.91,0-36.02,7.66-48.41,20.05C7.66,100.91,0,118.03,0,136.93s7.66,36.02,20.05,48.41c.02.02.04.04.06.06,12.38,12.36,29.48,20,48.35,20h136.93l-68.47-68.47c18.91,0,36.02-7.67,48.41-20.05ZM130.35,130.47c-4.14,4.14-9.87,6.71-16.2,6.71h-2.33s0,9.61,0,9.61h-18.25v-9.61h-25.23s22.9-22.9,22.9-22.9c-6.33,0-12.05-2.57-16.19-6.71-2.17-2.17-3.92-4.78-5.08-7.68-1.05-2.63-1.63-5.5-1.63-8.51,0-3.72.89-7.23,2.46-10.33,1.12-2.2,2.58-4.2,4.31-5.92,4.14-4.11,9.84-6.65,16.14-6.65h2.33s0-9.61,0-9.61h18.25v9.61h25.23l-22.9,22.9c6.33,0,12.05,2.56,16.19,6.71,4.14,4.14,6.71,9.87,6.71,16.2s-2.54,11.99-6.65,16.13c-.02.02-.04.04-.06.06Z"/>
      <g>
        <g>
          <path class="cls-1" d="M285.85,123.41h-6.09v27.97h-35.49V54.25h51.94c23.31,0,36.13,14.38,36.13,35.75,0,11.92-4.53,21.5-13.08,27.2l13.21,34.19h-36.91l-9.71-27.97ZM279.77,81.84v18.39h7.64c6.22,0,8.42-4.27,8.42-9.32s-2.2-9.07-8.55-9.07h-7.51Z"/>
          <path class="cls-1" d="M403.84,151.39h-64.89V54.25h64.5v27.84h-29.01v8.16h27.59v23.57h-27.59v9.71h29.4v27.85Z"/>
          <path class="cls-1" d="M411.74,151.39v-27.85h36.52c4.14,0,5.44-2.2,5.44-4.01,0-1.94-1.3-4.14-5.31-4.14h-5.7c-20.07,0-32.9-12.43-32.9-30.57s12.82-30.56,32.9-30.56h44.16v27.84h-34.45c-3.11,0-4.92,1.3-4.92,3.5,0,2.07,1.81,3.5,4.92,3.5h4.92c20.46,0,33.16,13.34,33.16,31.08s-12.69,31.21-33.16,31.21h-45.59Z"/>
          <path class="cls-1" d="M561.46,151.39h-64.89V54.25h64.5v27.84h-29.01v8.16h27.59v23.57h-27.59v9.71h29.4v27.85Z"/>
          <path class="cls-1" d="M569.87,151.39V54.25h36.13l19.69,41.44h4.4v-41.44h32.38v97.13h-37.43l-18.39-41.44h-4.4v41.44h-32.38Z"/>
          <path class="cls-1" d="M719.33,114.48h-12.3v36.91h-35.49V54.25h35.49v34.45h12.3v-34.45h35.49v97.13h-35.49v-36.91Z"/>
          <path class="cls-1" d="M817.76,134.29h-19.3l-2.46,17.1h-36.01l21.37-97.13h53.49l21.37,97.13h-36l-2.46-17.1ZM802.22,108.65h11.79l-3.37-23.31h-5.05l-3.37,23.31Z"/>
        </g>
        <g>
          <g>
            <path class="cls-1" d="M887.89,151.39V54.25h27.59c32.9,0,52.06,19.82,52.06,48.57s-19.3,48.57-51.93,48.57h-27.72ZM897.61,63.32v79h17.87c30.31,0,42.22-17.87,42.22-39.5s-11.92-39.5-42.35-39.5h-17.74Z"/>
            <path class="cls-1" d="M1028.93,121.34h-37.82l-7.51,30.05h-10.36l24.61-97.13h24.48l24.48,97.13h-10.36l-7.51-30.05ZM993.45,112.27h33.28l-12.17-48.96h-8.94l-12.17,48.96Z"/>
          </g>
          <g>
            <path class="cls-1" d="M1075.43,151.39v-27.85h36.52c4.14,0,5.44-2.2,5.44-4.01,0-1.94-1.29-4.14-5.31-4.14h-5.7c-20.07,0-32.9-12.43-32.9-30.57s12.82-30.56,32.9-30.56h44.16v27.84h-34.45c-3.11,0-4.92,1.3-4.92,3.5,0,2.07,1.81,3.5,4.92,3.5h4.92c20.46,0,33.16,13.34,33.16,31.08s-12.69,31.21-33.16,31.21h-45.59Z"/>
            <path class="cls-1" d="M1211.03,153.2c-30.95,0-52.71-21.63-52.71-50.9s21.76-49.86,52.71-49.86,52.84,21.11,52.84,49.86-21.76,50.9-52.84,50.9ZM1211.03,120.17c10.36,0,16.97-7.51,16.97-17.35s-6.61-17.35-16.97-17.35-16.84,7.38-16.84,17.35,6.61,17.35,16.84,17.35Z"/>
            <path class="cls-1" d="M1312.57,123.41h-6.09v27.97h-35.49V54.25h51.93c23.31,0,36.13,14.38,36.13,35.75,0,11.92-4.53,21.5-13.08,27.2l13.21,34.19h-36.91l-9.71-27.97ZM1306.48,81.84v18.39h7.64c6.22,0,8.42-4.27,8.42-9.32s-2.2-9.07-8.55-9.07h-7.51Z"/>
            <path class="cls-1" d="M1378.1,151.39v-69.29h-13.73v-27.84h62.81v27.84h-13.6v69.29h-35.49Z"/>
            <path class="cls-1" d="M1499.84,151.39h-64.89V54.25h64.5v27.84h-29.01v8.16h27.59v23.57h-27.59v9.71h29.4v27.85Z"/>
          </g>
        </g>
      </g>
    </g>
  </g>
</svg>