<?xml version="1.0" encoding="UTF-8"?>
<svg id="Layer_2" data-name="Layer 2" xmlns="http://www.w3.org/2000/svg" viewBox="0 0 1249.35 302.16">
  <g id="Layer_1-2" data-name="Layer 1">
    <g>
      <path d="M270.44,171.59c9.48-9.48,17.07-20.86,22.14-33.52,4.6-11.47,7.12-24,7.12-37.11,0-16.22-3.87-31.54-10.72-45.08-4.79-9.46-11.04-18.05-18.45-25.48C252.44,12.27,227.43,1.05,199.8,1.05H0l99.9,99.9c-27.59,0-52.56,11.18-70.64,29.26C11.18,148.29,0,173.27,0,200.85s11.18,52.56,29.26,70.64c.03.03.06.06.09.08,18.07,18.04,43.01,29.18,70.55,29.18h199.8l-99.9-99.9c27.59,0,52.56-11.18,70.64-29.26ZM190.19,191.42c-6.05,6.05-14.4,9.79-23.63,9.79h-3.39s0,14.03,0,14.03h-26.63v-14.03h-36.81s33.42-33.42,33.42-33.42c-9.23,0-17.58-3.74-23.63-9.79-3.17-3.17-5.71-6.98-7.41-11.21-1.53-3.84-2.38-8.03-2.38-12.42,0-5.42,1.29-10.55,3.58-15.08,1.63-3.22,3.76-6.13,6.29-8.64,6.04-6,14.36-9.7,23.54-9.7h3.39s0-14.03,0-14.03h26.63v14.03h36.81l-33.42,33.42c9.23,0,17.58,3.74,23.63,9.79,6.05,6.05,9.79,14.4,9.79,23.63s-3.7,17.5-9.7,23.54c-.03.03-.06.06-.09.09Z"/>
      <g>
        <g>
          <g>
            <path d="M417.1,100.91h-8.88v40.82h-51.78V0h75.78c34.01,0,52.72,20.98,52.72,52.16,0,17.39-6.61,31.37-19.09,39.69l19.28,49.89h-53.86l-14.17-40.82ZM408.22,40.25v26.83h11.15c9.07,0,12.28-6.24,12.28-13.61s-3.21-13.23-12.47-13.23h-10.96Z"/>
            <path d="M589.26,141.73h-94.68V0h94.11v40.63h-42.33v11.91h40.25v34.39h-40.25v14.17h42.9v40.63Z"/>
            <path d="M600.78,141.73v-40.63h53.29c6.05,0,7.94-3.21,7.94-5.86,0-2.83-1.89-6.05-7.75-6.05h-8.31c-29.29,0-48-18.14-48-44.6S616.66,0,645.95,0h64.44v40.63h-50.27c-4.54,0-7.18,1.89-7.18,5.1,0,3.02,2.65,5.1,7.18,5.1h7.18c29.86,0,48.38,19.46,48.38,45.35s-18.52,45.54-48.38,45.54h-66.52Z"/>
            <path d="M819.24,141.73h-94.68V0h94.11v40.63h-42.33v11.91h40.25v34.39h-40.25v14.17h42.9v40.63Z"/>
            <path d="M831.52,141.73V0h52.73l28.72,60.47h6.42V0h47.24v141.73h-54.61l-26.83-60.47h-6.42v60.47h-47.25Z"/>
            <path d="M1049.6,87.87h-17.95v53.86h-51.78V0h51.78v50.27h17.95V0h51.78v141.73h-51.78v-53.86Z"/>
            <path d="M1193.23,116.79h-28.16l-3.59,24.94h-52.54L1140.12,0h78.05l31.18,141.73h-52.53l-3.59-24.94ZM1170.55,79.37h17.2l-4.91-34.02h-7.37l-4.91,34.02Z"/>
          </g>
          <g>
            <path d="M356.44,299.51v-141.73h40.25c48,0,75.97,28.91,75.97,70.87s-28.16,70.87-75.78,70.87h-40.44ZM370.61,171.01v115.28h26.08c44.22,0,61.61-26.08,61.61-57.64s-17.39-57.64-61.79-57.64h-25.89Z"/>
            <path d="M562.23,255.67h-55.18l-10.96,43.84h-15.12l35.91-141.73h35.72l35.72,141.73h-15.12l-10.96-43.84ZM510.45,242.44h48.57l-17.76-71.43h-13.04l-17.76,71.43Z"/>
          </g>
        </g>
        <g>
          <path d="M630.08,299.51v-40.63h53.29c6.05,0,7.94-3.21,7.94-5.86,0-2.83-1.89-6.05-7.75-6.05h-8.31c-29.29,0-48-18.14-48-44.6s18.71-44.6,48-44.6h64.44v40.63h-50.27c-4.54,0-7.18,1.89-7.18,5.1,0,3.02,2.65,5.1,7.18,5.1h7.18c29.86,0,48.38,19.46,48.38,45.35s-18.52,45.54-48.38,45.54h-66.52Z"/>
          <path d="M827.93,302.16c-45.16,0-76.91-31.56-76.91-74.27s31.75-72.76,76.91-72.76,77.1,30.8,77.1,72.76-31.75,74.27-77.1,74.27ZM827.93,253.97c15.12,0,24.76-10.96,24.76-25.32s-9.64-25.32-24.76-25.32-24.57,10.77-24.57,25.32,9.64,25.32,24.57,25.32Z"/>
          <path d="M976.09,258.69h-8.88v40.82h-51.78v-141.73h75.78c34.02,0,52.72,20.98,52.72,52.16,0,17.39-6.61,31.37-19.09,39.69l19.28,49.89h-53.86l-14.17-40.82ZM967.21,198.03v26.83h11.15c9.07,0,12.28-6.24,12.28-13.61s-3.21-13.23-12.47-13.23h-10.96Z"/>
          <path d="M1071.71,299.51v-101.1h-20.03v-40.63h91.65v40.63h-19.84v101.1h-51.78Z"/>
          <path d="M1249.35,299.51h-94.68v-141.73h94.11v40.63h-42.33v11.91h40.25v34.39h-40.25v14.17h42.9v40.63Z"/>
        </g>
      </g>
    </g>
  </g>
</svg>