<?xml version="1.0" encoding="UTF-8"?>
<svg id="Layer_2" data-name="Layer 2" xmlns="http://www.w3.org/2000/svg" viewBox="0 0 446.34 446.34">
  <g id="Layer_1-2" data-name="Layer 1">
    <path d="M402.76,253.98c14.13-14.12,25.42-31.07,32.97-49.93,6.85-17.09,10.61-35.75,10.61-55.27,0-24.16-5.76-46.97-15.97-67.13-7.14-14.08-16.44-26.88-27.48-37.95C375.96,16.71,338.71,0,297.56,0H0l148.78,148.78c-41.08,0-78.28,16.65-105.2,43.57C16.65,219.28,0,256.48,0,297.56s16.65,78.28,43.58,105.2c.04.04.09.09.13.13,26.91,26.87,64.06,43.45,105.07,43.45h297.56l-148.78-148.78c41.08,0,78.28-16.66,105.2-43.58ZM283.25,283.51c-9.01,9.01-21.45,14.58-35.2,14.58h-5.06s0,20.89,0,20.89h-39.65v-20.89h-54.83s49.77-49.77,49.77-49.77c-13.75,0-26.18-5.58-35.19-14.58-4.72-4.72-8.51-10.39-11.03-16.7-2.29-5.72-3.54-11.96-3.54-18.49,0-8.08,1.93-15.71,5.34-22.46,2.43-4.79,5.6-9.13,9.37-12.87,8.99-8.93,21.38-14.45,35.06-14.45h5.06s0-20.89,0-20.89h39.65v20.89h54.83l-49.77,49.77c13.75,0,26.18,5.57,35.19,14.58,9.01,9.01,14.58,21.45,14.58,35.2s-5.51,26.06-14.45,35.06c-.04.05-.08.09-.13.13Z"/>
  </g>
</svg>